# xmcd
#
# Track frame offsets:
#	150
#	19173
#	47130
#	63945
#	86849
#	115441
#	137158
#	160748
#	183531
#	209449
#	230365
#	242666
#
# Disc length: 3528 seconds
#
# Revision: 0
# Processed by: cddbd v1.5.2PL0 Copyright (c) Steve Scherf et al.
# Submitted via: EasyCDDAExtractor 10.0.6.1
#
DISCID=a70dc60c
DTITLE=Bittencourt - Brainworms I
DYEAR=2008
DGENRE=Instrumental Rock
TTITLE0=Dedicate My Soul
TTITLE1=Holding Back The Fire
TTITLE2=Torment Of Fate
TTITLE3=The Dark Side Of Love
TTITLE4=Nightfly
TTITLE5=The Underworld
TTITLE6=Faded
TTITLE7=Santa Teresa
TTITLE8=O Pastor
TTITLE9=Comendo Melancia
TTITLE10=Primeiro Amor
TTITLE11=Nacib Véio
EXTD=
EXTT0=
EXTT1=
EXTT2=
EXTT3=
EXTT4=
EXTT5=
EXTT6=
EXTT7=
EXTT8=
EXTT9=
EXTT10=
EXTT11=
PLAYORDER=
